PathFileType	4	(X/Y/Z)	C:/Users/opensim2020/Desktop/walking_exp_matlab/subject02_walking08_straight_01.trc	
DataRate	CameraRate	NumFrames	NumMarkers	Units	OrigDataRate	OrigDataStartFrame	OrigNumFrames	
100.00	100.00	4	41	mm	100.00	680	324	
Frame#	Time	LFHD			RFHD			LBHD			RBHD			C7			T10			CLAV			STRN			RBAK			LSHO			LUPA			LELB			LFRM			LWRA			LWRB			LFIN			RSHO			RUPA			RELB			RFRM			RWRA			RWRB			RFIN			LASI			RASI			LPSI			RPSI			LTHI			LKNE			LTIB			LANK			LHEE			LTOE			RTHI			RKNE			RTIB			RANK			RHEE			RTOE			*39			*40			
		X1	Y1	Z1	X2	Y2	Z2	X3	Y3	Z3	X4	Y4	Z4	X5	Y5	Z5	X6	Y6	Z6	X7	Y7	Z7	X8	Y8	Z8	X9	Y9	Z9	X10	Y10	Z10	X11	Y11	Z11	X12	Y12	Z12	X13	Y13	Z13	X14	Y14	Z14	X15	Y15	Z15	X16	Y16	Z16	X17	Y17	Z17	X18	Y18	Z18	X19	Y19	Z19	X20	Y20	Z20	X21	Y21	Z21	X22	Y22	Z22	X23	Y23	Z23	X24	Y24	Z24	X25	Y25	Z25	X26	Y26	Z26	X27	Y27	Z27	X28	Y28	Z28	X29	Y29	Z29	X30	Y30	Z30	X31	Y31	Z31	X32	Y32	Z32	X33	Y33	Z33	X34	Y34	Z34	X35	Y35	Z35	X36	Y36	Z36	X37	Y37	Z37	X38	Y38	Z38	X39	Y39	Z39	X40	Y40	Z40	X41	Y41	Z41	

122	1.210	-1113.67627	-410.38879	1727.82776	-972.88593	-424.05481	1701.04321	-1139.01685	-540.75128	1656.41223	-1000.43152	-566.20892	1628.16687	-1073.25256	-602.55908	1512.39563	-1060.44812	-660.40344	1237.25464	-1085.88159	-465.59073	1440.33838	-1080.21851	-416.71329	1268.12085	-1008.03131	-664.14001	1339.31055	-1255.01221	-528.03943	1485.72339	-1342.34265	-492.03210	1289.09167	-1358.44714	-446.23007	1153.78467	-1357.93579	-376.62463	1039.40417	-1306.00281	-278.28506	956.34106	-1346.26111	-312.89389	935.57306	-1343.71472	-263.82965	892.23572	-887.60236	-521.57562	1473.47144	-804.46722	-553.20764	1283.62549	-784.33429	-541.02734	1137.39294	-769.27197	-501.05908	1022.35913	-793.56360	-439.42615	902.61517	-759.98212	-485.47116	893.06781	-761.21021	-441.35913	834.75659	-1210.13062	-440.64169	971.09656	-952.86469	-415.09967	965.45374	-1106.27698	-642.94495	1016.81207	-991.71643	-637.27917	1016.20074	-1239.78088	-546.62701	665.47571	-1203.28540	-605.52667	469.83133	-1197.70642	-694.97217	296.01062	-1156.98486	-730.41284	75.82896	-1104.51685	-768.81146	50.97063	-1174.16833	-577.68549	30.36529	-861.69000	-427.95645	668.80457	-895.87891	-352.59567	475.03122	-874.92645	-326.43381	291.64685	-894.82526	-274.24570	102.66470	-948.34015	-287.76212	35.98288	-893.91223	-111.75521	96.99711	-1029.24878	-519.26892	1789.41003			 
123	1.220	-1111.94019	-402.37241	1726.99023	-971.22571	-416.28207	1699.75562	-1137.69275	-533.03741	1656.02783	-999.21375	-558.60052	1627.74597	-1072.03906	-595.08984	1511.68665	-1058.78040	-652.40930	1236.26392	-1084.94458	-458.08414	1439.72974	-1079.63232	-409.04398	1267.58252	-1006.76459	-656.82153	1338.44604	-1253.92871	-520.83588	1485.29626	-1341.16296	-484.04959	1288.87402	-1357.29150	-437.11444	1153.84766	-1356.16467	-365.88263	1040.49280	-1303.53784	-266.26083	959.44049	-1343.64929	-300.53281	937.56702	-1341.20691	-250.66475	895.29803	-886.46869	-513.79883	1472.58118	-803.56958	-546.37018	1282.74707	-783.66968	-533.37054	1136.38501	-768.31171	-494.59448	1021.25696	-793.14935	-433.40805	901.17114	-759.06555	-478.72852	892.09088	-760.31177	-434.97650	833.64429	-1209.69580	-433.50262	970.24707	-952.74506	-406.05826	964.40393	-1104.16577	-635.21942	1016.22260	-989.67706	-628.49231	1015.62280	-1239.30981	-541.47913	665.23615	-1202.86523	-601.09399	469.88647	-1197.38855	-692.27917	297.01556	-1157.09802	-729.91693	77.01032	-1104.72754	-768.90521	53.25088	-1174.27234	-577.57819	30.43544	-861.14685	-419.74020	667.68457	-896.46906	-344.91876	473.83209	-875.46515	-316.84723	290.93143	-895.56787	-261.92957	102.46083	-949.20935	-275.61353	36.19818	-895.59302	-99.44224	97.54771	-1027.41113	-511.13031	1788.58435			 
124	1.230	-1110.30701	-394.20694	1726.35522	-969.54224	-408.40460	1698.57275	-1136.23828	-525.14374	1655.92542	-998.10663	-551.43860	1627.20654	-1070.69641	-587.56323	1511.00842	-1057.03809	-644.55695	1235.57043	-1083.94141	-450.50204	1439.15869	-1078.89172	-401.25214	1267.07324	-1005.27844	-648.20679	1337.28979	-1252.70850	-513.67603	1485.01233	-1339.83521	-476.14584	1288.56580	-1355.85632	-428.22144	1153.85815	-1354.27588	-355.39145	1041.36621	-1301.73975	-254.47641	962.19885	-1341.21350	-288.60730	939.58923	-1338.57422	-238.10339	898.00037	-885.36975	-505.68567	1471.47327	-802.63605	-538.81525	1281.83264	-782.76154	-526.45929	1135.52686	-767.26886	-487.18802	1020.47443	-791.67767	-426.69937	899.92963	-757.96826	-472.16135	890.97626	-759.23248	-429.21002	832.27979	-1209.12659	-426.17203	969.50116	-952.41144	-396.89182	963.43610	-1101.98694	-627.29340	1015.60016	-987.43195	-619.65680	1015.10181	-1238.64929	-536.05206	664.96405	-1202.45190	-596.41534	469.95950	-1197.22437	-689.40576	298.08890	-1157.25793	-729.38824	78.32398	-1104.92065	-768.47882	54.78376	-1174.34387	-577.47797	30.33926	-860.53766	-411.12659	666.75964	-896.66742	-337.21216	472.67953	-876.21289	-307.97180	290.05545	-896.68805	-251.41341	101.98627	-950.59766	-264.27829	35.78625	-896.69061	-88.62933	97.37631	-1025.56213	-502.95816	1788.08557			 
125	1.240	-1108.32532	-386.23840	1725.61621	-967.74835	-400.55948	1697.35693	-1134.65845	-517.31439	1655.68542	-996.51880	-543.86255	1626.65747	-1069.23584	-579.91254	1510.31860	-1055.20593	-636.47156	1234.70728	-1082.80847	-442.75772	1438.60217	-1078.02710	-393.33408	1266.56055	-1003.76843	-640.27734	1336.43079	-1251.41394	-506.39102	1484.61743	-1338.51489	-468.31656	1288.36523	-1354.81360	-419.59906	1153.85889	-1352.22046	-345.40079	1042.22278	-1299.20020	-243.12381	965.07855	-1338.71216	-276.98648	941.69568	-1336.02563	-226.05203	900.88953	-884.10687	-498.10098	1470.91626	-801.55243	-531.27643	1280.98376	-781.72711	-518.39746	1134.64563	-766.44128	-480.37061	1019.34442	-790.44269	-419.66537	898.77972	-756.74548	-465.60352	890.00024	-757.97113	-422.50427	831.20013	-1208.22485	-418.68311	968.86737	-951.97131	-387.66989	962.55176	-1099.72217	-619.32373	1015.00348	-985.26257	-610.30609	1014.47723	-1237.95825	-530.31396	664.73077	-1202.10620	-591.51807	470.03534	-1197.07458	-686.33557	299.22348	-1157.51453	-728.76727	79.74260	-1105.22363	-768.08606	56.62922	-1174.50098	-577.42535	30.35656	-859.80426	-402.51489	666.02826	-896.74207	-329.28015	471.65173	-876.86249	-299.67960	288.95200	-898.05585	-242.45715	101.11791	-952.38666	-255.37050	35.50545	-897.31586	-79.48518	96.17330	-1023.56299	-494.76892	1787.39697			 
